<svg xmlns="http://www.w3.org/2000/svg" xmlns:xlink="http://www.w3.org/1999/xlink" width="500" zoomAndPan="magnify" viewBox="0 0 375 374.999991" height="500" preserveAspectRatio="xMidYMid meet" version="1.0"><defs><g/><clipPath id="f52e0bc17a"><path d="M 36 53.804688 L 339 53.804688 L 339 321.554688 L 36 321.554688 Z M 36 53.804688 " clip-rule="nonzero"/></clipPath></defs><g clip-path="url(#f52e0bc17a)"><path fill="#ffffff" d="M 150.328125 235.089844 C 153.175781 235.089844 155.058594 236.976562 155.058594 239.824219 C 155.058594 242.671875 153.175781 244.558594 150.328125 244.558594 L 68.429688 244.558594 C 65.582031 244.558594 63.695312 242.671875 63.695312 239.824219 C 63.695312 236.976562 65.582031 235.089844 68.429688 235.089844 Z M 40.992188 195.335938 L 122.890625 195.335938 C 125.738281 195.335938 127.625 197.222656 127.625 200.070312 C 127.625 202.757812 125.941406 204.589844 123.355469 204.785156 L 122.890625 204.804688 L 40.992188 204.804688 C 38.144531 204.804688 36.257812 202.917969 36.257812 200.070312 C 36.257812 197.378906 37.941406 195.550781 40.527344 195.355469 L 40.992188 195.335938 L 122.890625 195.335938 Z M 68.429688 155.582031 L 150.328125 155.582031 C 153.175781 155.582031 155.058594 157.46875 155.058594 160.316406 C 155.058594 163.003906 153.378906 164.835938 150.792969 165.03125 L 150.328125 165.050781 L 68.429688 165.050781 C 65.597656 165.050781 63.695312 163.144531 63.695312 160.316406 C 63.695312 157.625 65.375 155.796875 67.960938 155.601562 L 68.429688 155.582031 L 150.328125 155.582031 Z M 325.886719 148.285156 C 334.144531 164.414062 338.730469 182.679688 338.730469 201.957031 C 338.730469 267.765625 285.234375 321.257812 219.425781 321.222656 C 187.714844 321.222656 157.886719 308.925781 135.160156 286.199219 C 133.273438 284.3125 133.273438 281.464844 135.160156 279.582031 C 137.046875 277.695312 139.894531 277.695312 141.78125 279.582031 C 162.601562 300.421875 190.058594 311.773438 219.40625 311.773438 C 280 311.773438 329.222656 262.550781 329.222656 201.957031 C 329.222656 185.425781 325.511719 169.691406 318.867188 155.597656 Z M 311.371094 163.402344 C 316.484375 175.378906 319.316406 188.566406 319.316406 202.417969 C 319.316406 257.335938 274.828125 301.824219 219.90625 301.824219 C 199.570312 301.824219 180.152344 295.667969 163.585938 284.3125 C 161.21875 282.910156 160.738281 280.0625 162.160156 277.695312 C 163.585938 275.808594 166.433594 275.328125 169.261719 276.714844 C 183.921875 287.125 201.453125 292.339844 219.90625 292.339844 C 269.613281 292.339844 309.847656 252.101562 309.847656 202.398438 C 309.847656 191.308594 307.847656 180.691406 304.183594 170.886719 Z M 310.136719 122.054688 C 314.355469 121.476562 318.472656 123.671875 320.332031 127.492188 C 322.203125 131.328125 321.394531 135.917969 318.34375 138.882812 C 283.527344 173.777344 258.359375 202.082031 223.132812 237.378906 C 219.527344 241.03125 213.71875 241.300781 209.792969 237.992188 L 167.113281 201.878906 C 165.097656 200.199219 163.839844 197.785156 163.625 195.171875 C 163.394531 192.554688 164.214844 189.964844 165.90625 187.960938 C 167.601562 185.949219 170.023438 184.703125 172.625 184.488281 C 175.242188 184.269531 177.832031 185.101562 179.835938 186.796875 L 215.539062 216.960938 C 246.90625 185.164062 271.519531 157.976562 304.390625 125.03125 C 305.914062 123.425781 307.941406 122.375 310.132812 122.054688 Z M 219.90625 103.007812 C 244.988281 103.007812 267.890625 112.285156 285.378906 127.597656 L 278.839844 134.429688 C 263.058594 120.738281 242.457031 112.457031 219.90625 112.457031 C 200.96875 112.457031 182.496094 118.152344 167.351562 129.503906 C 164.988281 130.929688 162.15625 130.449219 160.734375 128.5625 C 159.308594 126.675781 159.789062 123.367188 161.675781 121.941406 C 178.726562 109.628906 199.085938 103.007812 219.90625 103.007812 Z M 241.210938 53.804688 C 244.058594 53.804688 245.945312 55.691406 245.945312 58.539062 C 245.945312 61.226562 244.261719 63.058594 241.675781 63.253906 L 241.210938 63.269531 L 224.160156 63.269531 L 224.160156 83.148438 C 251.984375 84.074219 277.09375 94.542969 296.792969 111.429688 L 298.015625 112.496094 L 298.945312 113.425781 L 292.34375 120.328125 C 272.746094 103.09375 247.179688 92.597656 219.40625 92.597656 C 189.121094 92.597656 160.71875 104.914062 139.414062 127.15625 C 137.527344 129.042969 134.679688 129.042969 132.796875 127.15625 C 130.910156 125.273438 130.910156 122.425781 132.796875 120.539062 C 154.183594 97.773438 182.394531 85.039062 212.992188 83.238281 L 214.695312 83.148438 L 214.695312 63.269531 L 198.125 63.269531 C 195.277344 63.269531 193.390625 61.386719 193.390625 58.539062 C 193.390625 55.847656 195.074219 54.015625 197.660156 53.820312 L 198.125 53.804688 Z M 241.210938 53.804688 " fill-opacity="1" fill-rule="evenodd"/></g><g fill="#ffffff" fill-opacity="1"><g transform="translate(251.018045, 194.3037)"><g><path d="M 3.125 0 L 1.984375 0 L 1.984375 -3.125 L 2 -3.640625 L 2.015625 -4.203125 C 1.828125 -4.015625 1.695312 -3.890625 1.625 -3.828125 L 1 -3.328125 L 0.453125 -4.015625 L 2.1875 -5.40625 L 3.125 -5.40625 Z M 3.125 0 "/></g></g></g></svg>