<svg xmlns="http://www.w3.org/2000/svg" xmlns:xlink="http://www.w3.org/1999/xlink" width="500" zoomAndPan="magnify" viewBox="0 0 375 374.999991" height="500" preserveAspectRatio="xMidYMid meet" version="1.0"><defs><g/><clipPath id="08c36dab12"><path d="M 37.5 103 L 337.5 103 L 337.5 272 L 37.5 272 Z M 37.5 103 " clip-rule="nonzero"/></clipPath></defs><g clip-path="url(#08c36dab12)"><path fill="#ffffff" d="M 192.410156 121.882812 L 201.773438 121.882812 L 201.773438 131.285156 L 192.410156 131.285156 Z M 211.132812 126.585938 L 211.132812 131.285156 L 220.496094 131.285156 L 220.496094 121.882812 L 211.132812 121.882812 Z M 229.898438 126.585938 L 229.898438 131.285156 L 239.261719 131.285156 L 239.261719 121.882812 L 229.898438 121.882812 Z M 337.707031 103.117188 L 337.707031 271.839844 L 150.21875 271.839844 L 150.21875 220.328125 L 159.621094 220.328125 L 159.621094 262.519531 L 328.347656 262.519531 L 328.347656 150.011719 L 159.582031 150.011719 L 159.582031 154.710938 L 150.175781 154.710938 L 150.175781 103.160156 L 337.707031 103.160156 Z M 328.304688 131.246094 L 259.816406 131.246094 L 257.484375 126.542969 L 255.15625 121.839844 L 250.453125 112.480469 L 181.21875 112.480469 L 176.515625 121.839844 L 174.183594 126.542969 L 171.855469 131.246094 L 159.582031 131.246094 L 159.582031 140.605469 L 328.304688 140.605469 Z M 159.582031 121.882812 L 166.070312 121.882812 L 170.773438 112.519531 L 159.621094 112.519531 L 159.621094 121.882812 Z M 260.898438 112.519531 L 265.601562 121.882812 L 309.582031 121.882812 L 309.582031 112.519531 Z M 328.304688 112.519531 L 318.941406 112.519531 L 318.941406 121.882812 L 328.304688 121.882812 Z M 239.261719 159.371094 L 168.941406 159.371094 L 168.941406 168.734375 L 229.898438 168.734375 L 229.898438 220.289062 L 178.347656 220.289062 L 178.347656 206.222656 L 168.941406 206.222656 L 168.941406 229.648438 L 239.261719 229.648438 Z M 318.941406 178.472656 C 318.941406 186.042969 312.785156 192.203125 305.210938 192.203125 L 262.355469 192.203125 C 254.78125 192.203125 248.625 186.042969 248.625 178.472656 L 248.625 177.804688 C 248.625 170.230469 254.78125 164.074219 262.355469 164.074219 L 305.210938 164.074219 C 312.785156 164.074219 318.941406 170.230469 318.941406 177.804688 Z M 309.582031 177.804688 C 309.582031 175.390625 307.625 173.476562 305.253906 173.476562 L 262.394531 173.476562 C 259.984375 173.476562 258.027344 175.433594 258.027344 177.804688 L 258.027344 178.472656 C 258.027344 180.882812 259.984375 182.796875 262.394531 182.796875 L 305.253906 182.796875 C 307.667969 182.796875 309.582031 180.84375 309.582031 178.472656 Z M 318.941406 201.5625 L 267.390625 201.5625 L 267.390625 210.925781 L 318.941406 210.925781 Z M 267.390625 248.414062 L 304.878906 248.414062 L 304.878906 239.054688 L 267.390625 239.054688 Z M 318.941406 220.328125 L 290.816406 220.328125 L 290.816406 229.691406 L 318.941406 229.691406 Z M 267.390625 220.328125 L 267.390625 229.691406 L 281.453125 229.691406 L 281.453125 220.328125 Z M 248.625 210.925781 C 257.984375 210.925781 248.625 210.925781 257.984375 210.925781 L 257.984375 201.5625 L 248.625 201.5625 Z M 248.625 229.691406 C 257.984375 229.691406 248.625 229.691406 257.984375 229.691406 L 257.984375 220.328125 L 248.625 220.328125 Z M 248.625 248.414062 C 257.984375 248.414062 248.625 248.414062 257.984375 248.414062 L 257.984375 239.054688 L 248.625 239.054688 Z M 140.855469 214.335938 L 140.855469 201.5625 L 122.089844 201.5625 L 122.089844 243.753906 C 122.089844 251.496094 115.765625 257.820312 108.027344 257.820312 L 51.773438 257.820312 C 44.03125 257.820312 37.707031 251.496094 37.707031 243.753906 L 37.707031 131.246094 C 37.707031 123.503906 44.03125 117.179688 51.773438 117.179688 L 108.027344 117.179688 C 115.765625 117.179688 122.089844 123.503906 122.089844 131.246094 L 122.089844 173.4375 L 140.855469 173.4375 L 140.855469 160.664062 L 154.921875 168.691406 L 173.6875 179.386719 L 187.832031 187.457031 L 173.6875 195.53125 L 154.921875 206.222656 Z M 112.730469 192.203125 L 112.730469 131.246094 C 112.730469 128.664062 110.648438 126.542969 108.027344 126.542969 L 51.773438 126.542969 C 49.191406 126.542969 47.070312 128.625 47.070312 131.246094 L 47.070312 243.714844 C 47.070312 246.292969 49.152344 248.414062 51.773438 248.414062 L 108.027344 248.414062 C 110.605469 248.414062 112.730469 246.335938 112.730469 243.714844 Z M 122.089844 192.203125 L 150.21875 192.203125 L 150.21875 198.195312 L 154.921875 195.53125 L 168.902344 187.5 L 154.921875 179.511719 L 150.21875 176.847656 L 150.21875 182.839844 L 122.089844 182.839844 Z M 75.238281 215.628906 L 103.367188 215.628906 L 103.367188 206.265625 L 75.238281 206.265625 Z M 75.238281 234.351562 L 103.367188 234.351562 L 103.367188 224.988281 L 75.238281 224.988281 Z M 56.472656 215.628906 C 65.835938 215.628906 56.472656 215.628906 65.835938 215.628906 L 65.835938 206.265625 L 56.472656 206.265625 Z M 56.472656 234.351562 C 65.835938 234.351562 56.472656 234.351562 65.835938 234.351562 L 65.835938 224.988281 L 56.472656 224.988281 Z M 56.472656 154.671875 L 103.324219 154.671875 L 103.324219 196.863281 L 56.472656 196.863281 Z M 65.835938 187.5 L 93.964844 187.5 L 93.964844 164.074219 L 65.835938 164.074219 Z M 98.664062 138.277344 L 61.175781 138.277344 L 61.175781 147.640625 L 98.664062 147.640625 Z M 168.941406 248.414062 L 239.261719 248.414062 L 239.261719 239.054688 L 168.941406 239.054688 Z M 168.941406 248.414062 " fill-opacity="1" fill-rule="nonzero"/></g><g fill="#ffffff" fill-opacity="1"><g transform="translate(151.074647, 126.551848)"><g><path d="M 5.28125 0 L 3.359375 0 L 3.359375 -5.28125 L 3.375 -6.15625 L 3.40625 -7.109375 C 3.082031 -6.785156 2.859375 -6.570312 2.734375 -6.46875 L 1.6875 -5.625 L 0.75 -6.796875 L 3.703125 -9.140625 L 5.28125 -9.140625 Z M 5.28125 0 "/></g></g></g></svg>